<?xml version="1.0" encoding="UTF-8"?>
<!-- Generator: Adobe Illustrator 12.0.0, SVG Export Plug-In . SVG Version: 6.00 Build 51448)  -->
<!DOCTYPE svg PUBLIC "-//W3C//DTD SVG 1.1//EN" "http://www.w3.org/Graphics/SVG/1.1/DTD/svg11.dtd" [
	<!ENTITY ns_svg "http://www.w3.org/2000/svg">
	<!ENTITY ns_xlink "http://www.w3.org/1999/xlink">
]>
<svg version="1.1" id="Layer_1" xmlns="http://www.w3.org/2000/svg" xmlns:xlink="http://www.w3.org/1999/xlink" width="200" height="168.865" viewBox="0 0 200 168.865" overflow="visible" enable-background="new 0 0 200 168.865" xml:space="preserve">
<g>
	<path fill-rule="evenodd" clip-rule="evenodd" fill="#00009C" d="M110.887,0l24.115,39.194v90.479l-24.115,39.192h52.844   c20.084,0,36.27-15.339,36.27-35.357V36.139C200,16.12,183.814,0,163.796,0H110.887L110.887,0z"/>
	<polygon fill-rule="evenodd" clip-rule="evenodd" fill="#00009C" points="0,168.865 24.179,129.672 24.179,39.194 0,0.065 105.362,0.065 81.183,39.194 81.183,129.672 105.362,168.865 0,168.865"/>
	<path fill-rule="evenodd" clip-rule="evenodd" fill="#FFFFFF" d="M87.813,28.34c0,0,8.32-15.925,17.939-15.535l-2.405,17.549   l2.016,0.39c0,0,2.406-9.554,1.95-10.789c0,0,7.605,3.574,5.59,14.365c0,0,12.414,5.589,18.004,25.934l4.159,5.2l-0.583,4.485   c0,0,4.354,3.9,5.2,5.915c0,0,10.918,17.744,11.568,26.714c0,0,1.95,1.625-13.585,1.17c0,0-0.39,7.605-5.2,7.605   c0,0,5.98,4.81,0.78,10.398c0,0,5.591,1.17,9.23,7.996c0,0,7.538,13.845,9.943,19.109c0,0,6.371,13.194-3.964,8.386l-13.584-7.995   c0,0,2.794,12.869-3.966,10.53c0,0-12.869-3.9-30.354-14.106c0,0-19.564-7.15-28.729-2.794c0,0-11.959,2.794-27.56,13.976   c0,0-4.354-14.366,5.2-26.715c0,0,4.03-0.391,0.39-4.811c0,0-1.56-4.42,2.404-5.2c0,0,3.576-3.185,0.391-6.37   c0,0-2.405-5.2,0.845-10.399c0,0,1.949-0.78-0.455-4.744c0,0-13.715-16.38-10.465-35.555C42.574,63.048,44.979,20.28,87.813,28.34   L87.813,28.34z"/>
	<path fill-rule="evenodd" clip-rule="evenodd" fill="#00009C" d="M92.167,40.299c0,0,2.405-22.294,11.569-25.544   c0,0-4.354,10.399-2.404,15.599c0,0,0.844,5.98,5.589,1.17c0,0,2.016-3.184,2.016-7.15c0,0,2.795,4.745,2.405,11.181   c0,0,10.789,5.979,15.534,21.513c0,0,4.029,7.995,5.2,9.166l-1.171,3.639l6.37,6.37l10.334,22.36c0,0,1.626,2.794-1.56,3.184   l-10.79-0.39c0,0,2.016,6.76-4.81,6.76l-1.169,1.626c0,0,5.59,6.76,2.795,7.539c0,0-0.78,2.014-3.187,2.404   c0,0,11.181,8.776,11.96,12.807l9.164,17.158c0,0,4.031,7.541-4.353,2.339c0,0-23.53-11.958-28.34-12.739   c0,0-7.995-2.795-1.626,1.562l16.381,7.214c0,0,3.184,12.351-4.421,7.148c0,0-28.729-14.362-38.283-15.143   c0,0-13.975-6.371-41.469,10.399c0,0-3.64-12.415,9.165-22.359c0,0-6.371-9.945,3.185-5.981c0,0,0.78,6.76,12.739,7.997   c0,0-15.924-12.415-17.159-17.159c0,0-1.95-13.976,7.214-5.981l13.585,9.556c0,0,1.56,0-2.015-3.574   c0,0-11.959-7.607-15.599-13.196c0,0-19.89-15.144-11.96-42.704c0,0,2.016-27.949,33.929-27.104c0,0,9.62,0.39,4.03,5.59   c0,0-2.405,5.589,2.795,7.149C87.813,42.704,91.388,44.719,92.167,40.299L92.167,40.299z"/>
	<path fill-rule="evenodd" clip-rule="evenodd" fill="#FFFFFF" d="M108.938,53.883c0,0-6.761,0-0.781,3.185l4.746,5.591   c0,0-3.575,2.014-3.184,4.03c0,0,2.403,0,5.199-1.235c0,0,3.574,3.965,2.793,6.369c0,0-1.17,4.81,4.421,1.626   C122.132,73.449,130.906,58.694,108.938,53.883L108.938,53.883z"/>
	<path fill-rule="evenodd" clip-rule="evenodd" fill="#FFFFFF" d="M79.428,67.858c0,0,3.575,11.18,2.34-1.625   c0,0-5.979-9.555-8.319-10.335c0,0-7.215-6.37-5.59-12.415c0,0-6.435,1.625-7.215,20.409c0,0,0,16.707,6.76,28.274   c0,0,6.045,11.57,15.599,15.99c0,0,3.575-9.554,0.391-17.94c0,0-0.391,12.74-2.015,13.521c0,0-26.325-16.314-14.755-53.818   c0,0,2.404,6.369,6.37,8.775C72.993,58.694,78.583,64.283,79.428,67.858L79.428,67.858z"/>
	<path fill-rule="evenodd" clip-rule="evenodd" fill="#FFFFFF" d="M70.653,61.489c0,0-6.435-9.229-2.015,1.17l7.15,13.974   c0,0-1.949,7.215,0.845,9.166c0,0,2.795,5.589,2.795-1.562c0,0-4.419-2.794-0.455-7.213L70.653,61.489L70.653,61.489z"/>
	<path fill-rule="evenodd" clip-rule="evenodd" fill="#FFFFFF" d="M126.161,132.987c0,0,13.454,5.394,1.886-5.395   c0,0-0.326-0.52,0.261-0.065c3.965,3.185,12.738,8.059,2.989-1.82c-2.6-2.601-7.149-4.68-8.517-5.914   c-0.714-0.649-0.454-2.99,1.301-2.86c0,0,8.775,2.403,4.42-3.186c0,0-7.215-5.2-18.004-7.604c0,0-2.341,0.389-1.56,4.811   c0,0-0.391,4.81-2.016-2.406c0,0-3.575-15.144,5.98-14.753c0,0,8.773,0.779,14.365-3.187c0,0,9.619-5.979,3.184,0   c0,0-7.541,7.149,0.455,3.576c0,0,9.165-0.39,9.165,4.81l3.186,0.39c0,0,2.405,0,0.39-3.184l-9.555-18.786   c0,0-4.419-5.2-6.436-3.575c0,0-1.56,1.625,1.626,4.81l-4.354-0.845c0,0-13.585,11.18-26.39,0.455c0,0-6.37-5.59-3.575,3.965   c0,0,3.965,4.81-1.17,10.791c0,0-12.805,17.55,1.56,34.709c0,0,22.618,10.918,34.32,13.975c3.573,0.91,8.968,0.194-4.616-4.616   C129.282,137.47,131.297,136.236,126.161,132.987L126.161,132.987z"/>
	<path fill-rule="evenodd" clip-rule="evenodd" fill="#00009C" d="M103.736,108.157c0,0-1.17-10.79,0-12.349   c0,0,0.78-6.437-3.964-2.015C99.772,93.793,98.538,105.361,103.736,108.157L103.736,108.157z"/>
	<path fill-rule="evenodd" clip-rule="evenodd" fill="#FFFFFF" d="M119.336,98.212c0,0,12.351,3.574,12.351,5.979l0.779-4.81   c0,0,10.4-2.016-1.169-2.405l-5.785,0.779c0,0,2.6-3.184-2.602-1.558L119.336,98.212L119.336,98.212z"/>
	<path fill-rule="evenodd" clip-rule="evenodd" fill="#FFFFFF" d="M114.918,99.382c0,0-6.762-0.779-2.796,4.354l14.364,6.046   l2.796-5.2L114.918,99.382L114.918,99.382z"/>
	<path fill-rule="evenodd" clip-rule="evenodd" fill="#FFFFFF" d="M114.072,49.139c-2.666-1.885-6.956-4.81-10.855-4.81   c-4.224,0-6.174,4.614-5.849,8.71c1.43-1.885,5.07-4.615,6.303-5.069C104.972,47.644,111.083,48.489,114.072,49.139L114.072,49.139   z"/>
	<path fill-rule="evenodd" clip-rule="evenodd" fill="#00009C" d="M196.294,163.147c0.326,0.063,0.521,0.129,0.65,0.193   c0.13,0.13,0.26,0.326,0.26,0.521c0,0.261-0.063,0.455-0.26,0.52c-0.13,0.13-0.324,0.13-0.65,0.196v0.647l0.78,1.626h0.91   l-0.975-1.884c0.324-0.066,0.585-0.196,0.714-0.39c0.196-0.196,0.261-0.455,0.261-0.782c0-0.39-0.13-0.647-0.39-0.844   c-0.325-0.195-0.715-0.26-1.301-0.324V163.147L196.294,163.147z M196.294,168.541v-0.521c0.392,0,0.716-0.129,1.106-0.26   c0.388-0.131,0.715-0.39,1.039-0.65c0.261-0.324,0.521-0.647,0.65-1.039c0.194-0.391,0.259-0.78,0.259-1.234   c0-0.456-0.064-0.846-0.194-1.235c-0.194-0.391-0.391-0.781-0.715-1.039c-0.324-0.326-0.651-0.521-1.039-0.716   c-0.326-0.129-0.715-0.195-1.106-0.261v-0.455c0.392,0,0.716,0.066,1.04,0.195c0.39,0.131,0.781,0.325,1.105,0.585   c0.455,0.325,0.778,0.78,1.04,1.3c0.259,0.52,0.39,1.04,0.39,1.626c0,0.519-0.131,0.974-0.324,1.43   c-0.131,0.454-0.391,0.844-0.781,1.17c-0.324,0.324-0.779,0.584-1.233,0.779C197.141,168.412,196.749,168.475,196.294,168.541   L196.294,168.541z M195.45,163.147h0.65c0.064,0,0.129,0,0.193,0v-0.521c0,0,0,0-0.064,0h-1.56v4.224h0.78v-1.819h0.779   l0.064,0.193v-0.647c0,0-0.129,0-0.193,0h-0.65V163.147L195.45,163.147z M196.294,161.13v0.455c0,0-0.064,0-0.129,0   c-0.454,0-0.846,0.132-1.235,0.261c-0.39,0.13-0.715,0.39-1.04,0.649c-0.26,0.324-0.52,0.715-0.716,1.105   c-0.129,0.39-0.193,0.779-0.193,1.235c0,0.388,0.064,0.844,0.193,1.234c0.196,0.392,0.391,0.715,0.716,0.975   c0.325,0.325,0.65,0.584,1.04,0.715c0.39,0.194,0.781,0.26,1.171,0.26c0.064,0,0.129,0,0.193,0v0.521c0,0-0.064,0-0.129,0   c-0.521,0-0.975-0.129-1.429-0.325c-0.455-0.195-0.847-0.455-1.172-0.779c-0.391-0.391-0.65-0.782-0.845-1.236   c-0.195-0.455-0.26-0.909-0.26-1.363c0-0.391,0.064-0.846,0.195-1.235c0.131-0.391,0.325-0.715,0.585-1.039   c0.39-0.456,0.779-0.845,1.3-1.041c0.52-0.26,1.04-0.391,1.625-0.391C196.229,161.13,196.294,161.13,196.294,161.13L196.294,161.13   z"/>
</g>
</svg>